<svg width="24" height="24" viewBox="0 0 24 24" fill="none" xmlns="http://www.w3.org/2000/svg">
<path d="M13 3C13 2.44772 12.5523 2 12 2C11.4477 2 11 2.44772 11 3H13ZM11 4C11 4.55228 11.4477 5 12 5C12.5523 5 13 4.55228 13 4H11ZM13 20C13 19.4477 12.5523 19 12 19C11.4477 19 11 19.4477 11 20H13ZM11 21C11 21.5523 11.4477 22 12 22C12.5523 22 13 21.5523 13 21H11ZM4 13C4.55228 13 5 12.5523 5 12C5 11.4477 4.55228 11 4 11V13ZM3 11C2.44772 11 2 11.4477 2 12C2 12.5523 2.44772 13 3 13V11ZM5.60701 7.02122C5.99753 7.41175 6.6307 7.41175 7.02122 7.02122C7.41175 6.6307 7.41175 5.99753 7.02122 5.60701L5.60701 7.02122ZM6.20711 4.79289C5.81658 4.40237 5.18342 4.40237 4.79289 4.79289C4.40237 5.18342 4.40237 5.81658 4.79289 6.20711L6.20711 4.79289ZM16.9788 5.60702C16.5882 5.99755 16.5883 6.63072 16.9788 7.02124C17.3693 7.41175 18.0025 7.41174 18.393 7.02121L16.9788 5.60702ZM19.2071 6.20709C19.5976 5.81656 19.5976 5.1834 19.2071 4.79288C18.8165 4.40236 18.1834 4.40237 17.7929 4.79291L19.2071 6.20709ZM7.01945 18.3989C7.41095 18.0093 7.41253 17.3762 7.02299 16.9847C6.63344 16.5932 6.00028 16.5916 5.60878 16.9811L7.01945 18.3989ZM4.79466 17.7912C4.40316 18.1807 4.40158 18.8139 4.79113 19.2054C5.18068 19.5969 5.81384 19.5985 6.20534 19.2089L4.79466 17.7912ZM18.3912 16.9811C17.9997 16.5916 17.3666 16.5932 16.977 16.9846C16.5875 17.3761 16.589 18.0093 16.9805 18.3989L18.3912 16.9811ZM17.7946 19.2089C18.1861 19.5985 18.8193 19.5969 19.2088 19.2054C19.5984 18.8139 19.5968 18.1808 19.2053 17.7912L17.7946 19.2089ZM21 13C21.5523 13 22 12.5523 22 12C22 11.4477 21.5523 11 21 11V13ZM20 11C19.4477 11 19 11.4477 19 12C19 12.5523 19.4477 13 20 13V11ZM11 3V4H13V3H11ZM11 20V21H13V20H11ZM4 11H3V13H4V11ZM7.02122 5.60701L6.20711 4.79289L4.79289 6.20711L5.60701 7.02122L7.02122 5.60701ZM18.393 7.02121L19.2071 6.20709L17.7929 4.79291L16.9788 5.60702L18.393 7.02121ZM5.60878 16.9811L4.79466 17.7912L6.20534 19.2089L7.01945 18.3989L5.60878 16.9811ZM16.9805 18.3989L17.7946 19.2089L19.2053 17.7912L18.3912 16.9811L16.9805 18.3989ZM21 11H20V13H21V11ZM15 12C15 13.6569 13.6569 15 12 15V17C14.7614 17 17 14.7614 17 12H15ZM12 15C10.3431 15 9 13.6569 9 12H7C7 14.7614 9.23858 17 12 17V15ZM9 12C9 10.3431 10.3431 9 12 9V7C9.23858 7 7 9.23858 7 12H9ZM12 9C13.6569 9 15 10.3431 15 12H17C17 9.23858 14.7614 7 12 7V9Z" fill="#fff"/>
</svg>
